<!DOCTYPE svg PUBLIC "-//W3C//DTD SVG 1.1//EN" "http://www.w3.org/Graphics/SVG/1.1/DTD/svg11.dtd">
<!-- Uploaded to: SVG Repo, www.svgrepo.com, Transformed by: SVG Repo Mixer Tools -->
<svg fill="#101716" height="100px" width="100px" version="1.1" id="Capa_1" xmlns="http://www.w3.org/2000/svg" xmlns:xlink="http://www.w3.org/1999/xlink" viewBox="-26.23 -26.23 314.77 314.77" xml:space="preserve" stroke="#101716" stroke-width="0.0026230900000000007">
<g id="SVGRepo_bgCarrier" stroke-width="0">
<path transform="translate(-26.23, -26.23), scale(9.8365625)" d="M16,28.108371320327645C18.086638485278648,28.044327884502508,19.852802851944816,26.79774060844368,21.801014467583673,26.047651793297046C24.120690189087114,25.15454408389847,26.830478277276107,25.027982776651367,28.58189987697122,23.264163280886258C30.47818004631249,21.35445979618609,32.5382139199166,18.581662916901394,31.77804126610097,16C30.956788959044204,13.210901213157301,26.83899389104853,13.035968795953462,24.92559856304539,10.846803266947209C23.519262056407495,9.237776968274394,23.783149022501775,6.644354102752791,22.276411143278608,5.128937010649995C20.585473701935648,3.4282593177198653,18.397888506423996,1.8285021733891225,16,1.8697908706963062C13.604389031834987,1.9110403515897454,11.884000722994045,4.081249105121147,9.847151397874484,5.342953609839455C7.876770238328032,6.563485121106697,5.107068522619489,7.0533363364665105,4.193238324790633,9.183362968560107C3.270440616022927,11.334291773911621,5.00591642413877,13.674999825429062,5.27503447489519,15.999999999999998C5.5080426876875,18.013035297691435,4.836406686839867,20.116637596334527,5.672433737709902,21.962623161606874C6.53958606193607,23.87733473911864,8.183397275806447,25.33527630564094,9.989687338569441,26.410166898972236C11.809757459498442,27.493257756039437,13.883040052247015,28.173345387237084,16,28.108371320327645" fill="#ffffff" strokewidth="0"/>
</g>
<g id="SVGRepo_tracerCarrier" stroke-linecap="round" stroke-linejoin="round" stroke="#CCCCCC" stroke-width="1.573854"/>
<g id="SVGRepo_iconCarrier"> <path d="M259.483,96.3c0.312-6.277-0.907-6.465-4.359-11.17c0.596-6.163-2.919-7.843-4.802-8.157 c-1.881-0.307-3.495-6.423-1.613-7.519c1.885-1.094,8.465-5.424-1.6-14.871c-3.289-3.144-6.916-9.1-6.916-14.9 c0-5.802-1.727-7.061-5.183-8.472c-3.448-1.405-20.7-10.191-29.48-1.094c-8.79,9.088-21.15,27.987-23.173,28.869 c-8.258,3.579-22.32,3.652-30.738,8.778c-8.417,5.119-15.739,25.987-30.377,29.271c-14.636,3.299-26.35-12.805-47.575-2.917 c-21.227,9.881-43.188,49.767-43.919,63.31c-0.728,13.541-3.293,18.66-10.608,21.958c-7.326,3.299-10.981,6.583-13.911,19.031 c-2.925,12.442-8.044,23.011-3.29,30.375c4.755,7.365,6.219,7.365,11.342,7.365c5.123,0,31.469,0,31.469,0 c4.246,0,6.287-4.975,4.089-8.434c-2.196-3.448-12.707-6.431-5.646-13.794c7.058-7.374,23.608-19.26,27.445-25.254 c3.883-6.066,4.708-5.176,8.159,1.257c3.452,6.428,12.232,21.947,13.644,40.459c0.158,3.926-1.094,5.766,5.49,5.766 c6.587,0,31.368,0,31.368,0s6.431-6.078,2.668-10.471c-3.768-4.394-8.785-6.432-8.626-14.9c0.153-8.473-3.14-15.056,2.353-15.216 c5.491-0.149,14.271-1.726,17.094-4.078c2.819-2.353,5.017-2.98,5.805,4.868c0.786,7.84,3.138,16.149-0.629,18.656 c-3.764,2.515-9.406,7.715-6.275,14.435c3.141,6.706,3.768,6.706,8.785,6.706c5.022,0,20.864,0,20.864,0s2.823,1.6,6.27-7.651 c3.451-9.251,11.761-35.755,10.195-53.008c-0.47-6.278,3.764-3.608,4.081-0.782c0.312,2.823,1.412,16.462,1.412,16.462 s0.315,8.473,4.232,13.959c3.923,5.486,9.41,14.118,4.551,17.407c-4.867,3.292-5.645,5.02-5.645,7.839 c0,2.827-0.94,5.774,4.858,5.774c5.804,0,34.976,0,34.976,0s3.296-0.432,6.586-6.706c3.297-6.27,6.12-8.158,3.452-27.125 c-2.664-18.988-2.352-33.88-11.603-49.256c-2.512-4.076-2.824-24.301-2.824-28.543c0-4.238,4.547-3.448,7.052-2.981 c2.512,0.475,6.122,0.163,12.708-6.898C258.225,107.592,266.853,100.848,259.483,96.3z"/> </g>
</svg>